<svg width="2438" height="632" viewBox="0 0 2438 632" fill="none" xmlns="http://www.w3.org/2000/svg">
<circle cx="316" cy="316" r="301.5" fill="white" stroke="#0E1E28" stroke-width="29"/>
<path d="M401.959 211.161C432.626 186.619 448.78 155.846 438.042 142.427C427.303 129.008 393.737 138.025 363.07 162.566C332.403 187.107 316.248 217.88 326.987 231.299C337.725 244.718 371.291 235.702 401.959 211.161Z" fill="#12EE76"/>
<path d="M299.105 235.26C308.335 226.03 295.274 198.005 269.933 172.664C244.592 147.322 216.567 134.262 207.337 143.492C198.107 152.721 211.168 180.747 236.509 206.088C261.85 231.429 289.876 244.49 299.105 235.26Z" fill="#12EE76"/>
<path d="M423.312 371.617C436.732 360.88 427.714 327.314 403.174 296.646C378.633 265.98 347.859 249.825 334.44 260.563C321.021 271.302 330.038 304.868 354.579 335.534C379.119 366.201 409.893 382.356 423.312 371.617Z" fill="#EF3C56"/>
<path d="M201.088 383.183C201.088 415.128 213.779 445.766 236.367 468.354C258.956 490.943 289.593 503.633 321.539 503.633C388.063 503.633 487.361 394.519 424.113 373.94C354.721 351.366 322.718 265.07 308.336 263.457C242.229 256.038 201.088 316.66 201.088 383.183Z" fill="#EF3C56"/>
<path d="M171.058 125.18C171.092 151.151 178.069 176.641 191.265 199.01C204.462 221.379 223.398 239.813 246.114 252.403C234.209 259.006 223.286 267.241 213.662 276.869C192.072 298.438 177.811 326.25 172.898 356.369C167.985 386.488 172.668 417.39 186.284 444.701C199.901 472.013 221.761 494.351 248.772 508.555C275.783 522.756 306.576 528.107 336.795 523.845C367.014 519.582 395.128 505.927 417.158 484.807C439.187 463.688 454.016 436.177 459.549 406.165C465.082 376.152 461.037 345.161 447.985 317.575C434.935 289.989 413.538 267.206 386.827 252.449C409.573 239.876 428.536 221.442 441.748 199.062C454.96 176.682 461.939 151.173 461.959 125.184C461.959 122.796 461.49 120.431 460.576 118.225C459.664 116.019 458.324 114.014 456.636 112.326C454.946 110.637 452.942 109.298 450.735 108.384C448.531 107.47 446.166 107 443.778 107.001C424.669 106.949 405.738 110.689 388.085 118.003C370.431 125.317 354.402 136.059 340.927 149.61C331.3 159.234 323.065 170.157 316.463 182.062C303.883 159.337 285.451 140.394 263.08 127.196C240.709 113.998 215.213 107.027 189.239 107.006C186.852 107.006 184.489 107.476 182.283 108.389C180.077 109.302 178.073 110.64 176.385 112.328C174.697 114.015 173.358 116.019 172.444 118.224C171.53 120.429 171.059 122.793 171.058 125.18ZM336.542 232.392C340.59 210.767 351.08 190.871 366.637 175.314C382.192 159.757 402.089 149.266 423.713 145.217C419.635 166.828 409.134 186.708 393.584 202.259C378.033 217.811 358.153 228.312 336.542 232.392ZM393.608 302.617C409.169 318.154 419.665 338.039 423.713 359.653C402.113 355.569 382.242 345.072 366.698 329.526C351.153 313.981 340.653 294.113 336.57 272.512C358.185 276.56 378.069 287.055 393.608 302.617ZM239.37 302.581C255.68 286.186 276.811 275.443 299.669 271.928C303.954 303.473 318.463 332.744 340.973 355.255C363.483 377.765 392.751 392.276 424.297 396.562C421.639 413.581 414.989 429.73 404.889 443.684C394.791 457.639 381.532 469.005 366.195 476.849C350.86 484.695 333.884 488.797 316.659 488.82C299.433 488.842 282.447 484.788 267.09 476.983C251.733 469.179 238.443 457.85 228.307 443.922C218.17 429.995 211.476 413.864 208.772 396.852C206.068 379.841 207.431 362.43 212.749 346.045C218.067 329.661 227.19 314.771 239.37 302.589V302.581ZM209.292 145.242C230.894 149.326 250.764 159.825 266.31 175.371C281.855 190.916 292.355 210.786 296.438 232.388C274.837 228.304 254.969 217.804 239.425 202.258C223.881 186.713 213.383 166.844 209.3 145.242H209.292Z" fill="black"/>
<path d="M742.59 476C739.457 476 736.793 475.06 734.6 473.18C732.72 470.987 731.78 468.323 731.78 465.19V242.88C731.78 239.747 732.72 237.083 734.6 234.89C736.793 232.697 739.457 231.6 742.59 231.6H764.21C767.343 231.6 770.007 232.697 772.2 234.89C774.393 237.083 775.49 239.747 775.49 242.88V263.56C788.337 242.253 810.27 231.6 841.29 231.6H859.62C862.753 231.6 865.26 232.697 867.14 234.89C869.333 236.77 870.43 239.277 870.43 242.41V261.68C870.43 264.813 869.333 267.32 867.14 269.2C865.26 271.08 862.753 272.02 859.62 272.02H831.42C814.5 272.02 801.183 277.033 791.47 287.06C781.757 296.773 776.9 310.09 776.9 327.01V465.19C776.9 468.323 775.803 470.987 773.61 473.18C771.417 475.06 768.753 476 765.62 476H742.59ZM994.925 480.7C972.992 480.7 954.505 477.253 939.465 470.36C924.738 463.153 913.615 455.007 906.095 445.92C898.888 436.833 895.285 429.313 895.285 423.36C895.285 420.227 896.382 417.877 898.575 416.31C901.082 414.43 903.588 413.49 906.095 413.49H927.245C930.378 413.49 933.198 415.057 935.705 418.19C943.225 426.963 951.372 433.857 960.145 438.87C968.918 443.883 980.668 446.39 995.395 446.39C1011.69 446.39 1024.85 443.257 1034.87 436.99C1045.21 430.41 1050.38 421.48 1050.38 410.2C1050.38 402.68 1048.19 396.57 1043.8 391.87C1039.73 386.857 1032.52 382.627 1022.18 379.18C1012.16 375.42 997.118 371.347 977.065 366.96C949.805 361.007 930.378 352.39 918.785 341.11C907.505 329.83 901.865 315.26 901.865 297.4C901.865 285.493 905.312 274.213 912.205 263.56C919.412 252.593 929.752 243.82 943.225 237.24C957.012 230.347 973.462 226.9 992.575 226.9C1012.63 226.9 1029.7 230.19 1043.8 236.77C1057.9 243.35 1068.4 251.183 1075.29 260.27C1082.5 269.043 1086.1 276.407 1086.1 282.36C1086.1 285.18 1085.01 287.53 1082.81 289.41C1080.93 291.29 1078.58 292.23 1075.76 292.23H1056.02C1052.26 292.23 1049.13 290.663 1046.62 287.53C1041.61 281.577 1037.22 277.033 1033.46 273.9C1030.02 270.453 1024.85 267.477 1017.95 264.97C1011.37 262.463 1002.91 261.21 992.575 261.21C977.535 261.21 965.942 264.5 957.795 271.08C949.648 277.347 945.575 285.65 945.575 295.99C945.575 302.57 947.298 308.21 950.745 312.91C954.192 317.297 960.772 321.37 970.485 325.13C980.512 328.89 994.925 332.807 1013.72 336.88C1043.49 343.147 1064.48 352.233 1076.7 364.14C1089.24 375.733 1095.5 390.617 1095.5 408.79C1095.5 422.263 1091.59 434.483 1083.75 445.45C1075.92 456.417 1064.33 465.033 1048.97 471.3C1033.93 477.567 1015.92 480.7 994.925 480.7ZM1244.87 476C1195.36 476 1170.61 448.427 1170.61 393.28V269.2H1133.95C1130.81 269.2 1128.15 268.26 1125.96 266.38C1124.08 264.187 1123.14 261.523 1123.14 258.39V242.41C1123.14 239.277 1124.08 236.77 1125.96 234.89C1128.15 232.697 1130.81 231.6 1133.95 231.6H1170.61V153.11C1170.61 149.977 1171.55 147.47 1173.43 145.59C1175.62 143.397 1178.28 142.3 1181.42 142.3H1203.51C1206.64 142.3 1209.15 143.397 1211.03 145.59C1213.22 147.47 1214.32 149.977 1214.32 153.11V231.6H1272.6C1275.73 231.6 1278.24 232.697 1280.12 234.89C1282.31 236.77 1283.41 239.277 1283.41 242.41V258.39C1283.41 261.523 1282.31 264.187 1280.12 266.38C1278.24 268.26 1275.73 269.2 1272.6 269.2H1214.32V389.99C1214.32 405.657 1216.98 417.563 1222.31 425.71C1227.63 433.543 1236.41 437.46 1248.63 437.46H1277.3C1280.43 437.46 1282.94 438.557 1284.82 440.75C1287.01 442.63 1288.11 445.137 1288.11 448.27V465.19C1288.11 468.323 1287.01 470.987 1284.82 473.18C1282.94 475.06 1280.43 476 1277.3 476H1244.87ZM1336.92 354.74C1333.79 354.74 1331.12 353.8 1328.93 351.92C1327.05 349.727 1326.11 347.063 1326.11 343.93V326.07C1326.11 322.937 1327.05 320.43 1328.93 318.55C1331.12 316.357 1333.79 315.26 1336.92 315.26H1477.92C1481.05 315.26 1483.56 316.357 1485.44 318.55C1487.63 320.43 1488.73 322.937 1488.73 326.07V343.93C1488.73 347.063 1487.63 349.727 1485.44 351.92C1483.56 353.8 1481.05 354.74 1477.92 354.74H1336.92ZM1654.82 480.7C1621.29 480.7 1594.97 471.3 1575.86 452.5C1557.06 433.387 1547.03 406.753 1545.78 372.6L1545.31 353.8L1545.78 335C1547.03 300.847 1557.06 274.37 1575.86 255.57C1594.97 236.457 1621.29 226.9 1654.82 226.9C1677.38 226.9 1696.49 230.973 1712.16 239.12C1727.82 247.267 1739.42 257.293 1746.94 269.2C1754.77 281.107 1759 293.013 1759.63 304.92C1759.94 308.053 1759 310.56 1756.81 312.44C1754.61 314.32 1751.95 315.26 1748.82 315.26H1726.26C1723.12 315.26 1720.77 314.633 1719.21 313.38C1717.64 312.127 1716.07 309.62 1714.51 305.86C1709.18 290.82 1701.66 280.167 1691.95 273.9C1682.23 267.32 1670.01 264.03 1655.29 264.03C1635.86 264.03 1620.35 270.14 1608.76 282.36C1597.48 294.267 1591.37 312.597 1590.43 337.35L1589.96 354.27L1590.43 370.25C1591.37 395.317 1597.48 413.803 1608.76 425.71C1620.04 437.617 1635.55 443.57 1655.29 443.57C1670.01 443.57 1682.23 440.437 1691.95 434.17C1701.66 427.59 1709.18 416.78 1714.51 401.74C1716.07 397.98 1717.64 395.473 1719.21 394.22C1720.77 392.653 1723.12 391.87 1726.26 391.87H1748.82C1751.95 391.87 1754.61 392.967 1756.81 395.16C1759 397.04 1759.94 399.547 1759.63 402.68C1759 414.273 1754.77 426.18 1746.94 438.4C1739.42 450.307 1727.82 460.333 1712.16 468.48C1696.8 476.627 1677.69 480.7 1654.82 480.7ZM1826.25 476C1823.12 476 1820.46 475.06 1818.26 473.18C1816.38 470.987 1815.44 468.323 1815.44 465.19V242.41C1815.44 239.277 1816.38 236.77 1818.26 234.89C1820.46 232.697 1823.12 231.6 1826.25 231.6H1847.4C1850.54 231.6 1853.04 232.697 1854.92 234.89C1857.12 236.77 1858.21 239.277 1858.21 242.41V258.86C1874.51 237.553 1897.22 226.9 1926.36 226.9C1961.14 226.9 1985.74 241.313 2000.15 270.14C2007.67 256.98 2018.33 246.483 2032.11 238.65C2045.9 230.817 2061.41 226.9 2078.64 226.9C2104.34 226.9 2125.33 235.673 2141.62 253.22C2157.92 270.767 2166.06 296.147 2166.06 329.36V465.19C2166.06 468.323 2164.97 470.987 2162.77 473.18C2160.89 475.06 2158.39 476 2155.25 476H2133.16C2130.03 476 2127.37 475.06 2125.17 473.18C2123.29 470.987 2122.35 468.323 2122.35 465.19V333.59C2122.35 309.15 2117.18 291.603 2106.84 280.95C2096.82 270.297 2083.5 264.97 2066.89 264.97C2052.17 264.97 2039.48 270.453 2028.82 281.42C2018.17 292.073 2012.84 309.463 2012.84 333.59V465.19C2012.84 468.323 2011.75 470.987 2009.55 473.18C2007.67 475.06 2005.17 476 2002.03 476H1979.94C1976.81 476 1974.15 475.06 1971.95 473.18C1970.07 470.987 1969.13 468.323 1969.13 465.19V333.59C1969.13 309.15 1963.81 291.603 1953.15 280.95C1942.81 270.297 1929.65 264.97 1913.67 264.97C1898.95 264.97 1886.26 270.453 1875.6 281.42C1864.95 292.073 1859.62 309.307 1859.62 333.12V465.19C1859.62 468.323 1858.53 470.987 1856.33 473.18C1854.45 475.06 1851.95 476 1848.81 476H1826.25ZM2317.72 480.7C2295.78 480.7 2277.3 477.253 2262.26 470.36C2247.53 463.153 2236.41 455.007 2228.89 445.92C2221.68 436.833 2218.08 429.313 2218.08 423.36C2218.08 420.227 2219.17 417.877 2221.37 416.31C2223.87 414.43 2226.38 413.49 2228.89 413.49H2250.04C2253.17 413.49 2255.99 415.057 2258.5 418.19C2266.02 426.963 2274.16 433.857 2282.94 438.87C2291.71 443.883 2303.46 446.39 2318.19 446.39C2334.48 446.39 2347.64 443.257 2357.67 436.99C2368.01 430.41 2373.18 421.48 2373.18 410.2C2373.18 402.68 2370.98 396.57 2366.6 391.87C2362.52 386.857 2355.32 382.627 2344.98 379.18C2334.95 375.42 2319.91 371.347 2299.86 366.96C2272.6 361.007 2253.17 352.39 2241.58 341.11C2230.3 329.83 2224.66 315.26 2224.66 297.4C2224.66 285.493 2228.1 274.213 2235 263.56C2242.2 252.593 2252.54 243.82 2266.02 237.24C2279.8 230.347 2296.25 226.9 2315.37 226.9C2335.42 226.9 2352.5 230.19 2366.6 236.77C2380.7 243.35 2391.19 251.183 2398.09 260.27C2405.29 269.043 2408.9 276.407 2408.9 282.36C2408.9 285.18 2407.8 287.53 2405.61 289.41C2403.73 291.29 2401.38 292.23 2398.56 292.23H2378.82C2375.06 292.23 2371.92 290.663 2369.42 287.53C2364.4 281.577 2360.02 277.033 2356.26 273.9C2352.81 270.453 2347.64 267.477 2340.75 264.97C2334.17 262.463 2325.71 261.21 2315.37 261.21C2300.33 261.21 2288.73 264.5 2280.59 271.08C2272.44 277.347 2268.37 285.65 2268.37 295.99C2268.37 302.57 2270.09 308.21 2273.54 312.91C2276.98 317.297 2283.56 321.37 2293.28 325.13C2303.3 328.89 2317.72 332.807 2336.52 336.88C2366.28 343.147 2387.28 352.233 2399.5 364.14C2412.03 375.733 2418.3 390.617 2418.3 408.79C2418.3 422.263 2414.38 434.483 2406.55 445.45C2398.71 456.417 2387.12 465.033 2371.77 471.3C2356.73 477.567 2338.71 480.7 2317.72 480.7Z" fill="white"/>
<path d="M734.6 473.18L732.322 475.132L732.472 475.308L732.648 475.458L734.6 473.18ZM734.6 234.89L732.479 232.769L732.397 232.85L732.322 232.938L734.6 234.89ZM772.2 234.89L770.079 237.011L770.079 237.011L772.2 234.89ZM775.49 263.56H772.49V274.346L778.059 265.109L775.49 263.56ZM867.14 234.89L864.862 236.842L865.012 237.018L865.188 237.168L867.14 234.89ZM867.14 269.2L865.188 266.922L865.1 266.997L865.019 267.079L867.14 269.2ZM791.47 287.06L793.591 289.181L793.608 289.164L793.625 289.147L791.47 287.06ZM773.61 473.18L775.562 475.458L775.65 475.383L775.731 475.301L773.61 473.18ZM742.59 473C740.107 473 738.154 472.275 736.552 470.902L732.648 475.458C735.432 477.845 738.806 479 742.59 479V473ZM736.878 471.228C735.505 469.626 734.78 467.673 734.78 465.19H728.78C728.78 468.974 729.935 472.348 732.322 475.132L736.878 471.228ZM734.78 465.19V242.88H728.78V465.19H734.78ZM734.78 242.88C734.78 240.397 735.505 238.444 736.878 236.842L732.322 232.938C729.935 235.722 728.78 239.096 728.78 242.88H734.78ZM736.721 237.011C738.346 235.387 740.243 234.6 742.59 234.6V228.6C738.67 228.6 735.241 230.006 732.479 232.769L736.721 237.011ZM742.59 234.6H764.21V228.6H742.59V234.6ZM764.21 234.6C766.557 234.6 768.454 235.387 770.079 237.011L774.321 232.769C771.559 230.006 768.13 228.6 764.21 228.6V234.6ZM770.079 237.011C771.703 238.636 772.49 240.533 772.49 242.88H778.49C778.49 238.96 777.084 235.531 774.321 232.769L770.079 237.011ZM772.49 242.88V263.56H778.49V242.88H772.49ZM778.059 265.109C790.224 244.933 811.021 234.6 841.29 234.6V228.6C809.519 228.6 786.449 239.574 772.921 262.011L778.059 265.109ZM841.29 234.6H859.62V228.6H841.29V234.6ZM859.62 234.6C861.961 234.6 863.605 235.375 864.862 236.842L869.418 232.938C866.915 230.018 863.545 228.6 859.62 228.6V234.6ZM865.188 237.168C866.655 238.425 867.43 240.069 867.43 242.41H873.43C873.43 238.485 872.012 235.115 869.092 232.612L865.188 237.168ZM867.43 242.41V261.68H873.43V242.41H867.43ZM867.43 261.68C867.43 264.021 866.655 265.665 865.188 266.922L869.092 271.478C872.012 268.975 873.43 265.605 873.43 261.68H867.43ZM865.019 267.079C863.801 268.296 862.111 269.02 859.62 269.02V275.02C863.396 275.02 866.719 273.864 869.261 271.321L865.019 267.079ZM859.62 269.02H831.42V275.02H859.62V269.02ZM831.42 269.02C813.872 269.02 799.71 274.242 789.315 284.973L793.625 289.147C802.656 279.825 815.128 275.02 831.42 275.02V269.02ZM789.349 284.939C778.948 295.339 773.9 309.49 773.9 327.01H779.9C779.9 310.69 784.565 298.207 793.591 289.181L789.349 284.939ZM773.9 327.01V465.19H779.9V327.01H773.9ZM773.9 465.19C773.9 467.537 773.113 469.434 771.489 471.059L775.731 475.301C778.494 472.539 779.9 469.11 779.9 465.19H773.9ZM771.658 470.902C770.056 472.275 768.103 473 765.62 473V479C769.404 479 772.778 477.845 775.562 475.458L771.658 470.902ZM765.62 473H742.59V479H765.62V473ZM939.465 470.36L938.146 473.055L938.18 473.071L938.215 473.087L939.465 470.36ZM906.095 445.92L903.744 447.784L903.764 447.809L903.784 447.833L906.095 445.92ZM898.575 416.31L900.319 418.751L900.347 418.731L900.375 418.71L898.575 416.31ZM935.705 418.19L933.362 420.064L933.394 420.104L933.427 420.142L935.705 418.19ZM1034.87 436.99L1036.46 439.534L1036.48 439.528L1036.49 439.521L1034.87 436.99ZM1043.8 391.87L1041.48 393.762L1041.54 393.842L1041.61 393.917L1043.8 391.87ZM1022.18 379.18L1021.13 381.989L1021.18 382.008L1021.24 382.026L1022.18 379.18ZM977.065 366.96L977.706 364.029L977.705 364.029L977.065 366.96ZM918.785 341.11L916.664 343.231L916.678 343.246L916.693 343.26L918.785 341.11ZM912.205 263.56L909.698 261.912L909.692 261.921L909.686 261.93L912.205 263.56ZM943.225 237.24L944.541 239.936L944.554 239.93L944.567 239.923L943.225 237.24ZM1043.8 236.77L1042.54 239.489L1042.54 239.489L1043.8 236.77ZM1075.29 260.27L1072.9 262.083L1072.94 262.129L1072.98 262.174L1075.29 260.27ZM1082.81 289.41L1080.86 287.132L1080.78 287.207L1080.69 287.289L1082.81 289.41ZM1046.62 287.53L1048.97 285.656L1048.94 285.626L1048.92 285.598L1046.62 287.53ZM1033.46 273.9L1031.34 276.021L1031.44 276.118L1031.54 276.205L1033.46 273.9ZM1017.95 264.97L1016.89 267.773L1016.91 267.782L1016.93 267.789L1017.95 264.97ZM957.795 271.08L959.624 273.458L959.652 273.436L959.68 273.414L957.795 271.08ZM950.745 312.91L948.326 314.684L948.355 314.724L948.386 314.763L950.745 312.91ZM970.485 325.13L969.402 327.928L969.417 327.933L969.432 327.939L970.485 325.13ZM1013.72 336.88L1013.09 339.812L1013.1 339.814L1013.11 339.816L1013.72 336.88ZM1076.7 364.14L1074.61 366.289L1074.64 366.316L1074.67 366.342L1076.7 364.14ZM1083.75 445.45L1081.31 443.706L1081.31 443.706L1083.75 445.45ZM1048.97 471.3L1047.84 468.522L1047.83 468.527L1047.82 468.531L1048.97 471.3ZM994.925 477.7C973.289 477.7 955.257 474.298 940.715 467.633L938.215 473.087C953.753 480.209 972.694 483.7 994.925 483.7V477.7ZM940.784 467.665C926.3 460.578 915.57 452.664 908.406 444.007L903.784 447.833C911.659 457.349 923.177 465.729 938.146 473.055L940.784 467.665ZM908.445 444.056C901.319 435.071 898.285 428.24 898.285 423.36H892.285C892.285 430.386 896.457 438.596 903.744 447.784L908.445 444.056ZM898.285 423.36C898.285 421.015 899.05 419.657 900.319 418.751L896.831 413.869C893.713 416.096 892.285 419.438 892.285 423.36H898.285ZM900.375 418.71C902.494 417.121 904.385 416.49 906.095 416.49V410.49C902.792 410.49 899.669 411.739 896.775 413.91L900.375 418.71ZM906.095 416.49H927.245V410.49H906.095V416.49ZM927.245 416.49C929.221 416.49 931.251 417.425 933.362 420.064L938.048 416.316C935.145 412.688 931.536 410.49 927.245 410.49V416.49ZM933.427 420.142C941.139 429.14 949.545 436.268 958.657 441.475L961.633 436.265C953.198 431.445 945.311 424.787 937.983 416.238L933.427 420.142ZM958.657 441.475C968.044 446.839 980.37 449.39 995.395 449.39V443.39C980.967 443.39 969.792 440.928 961.633 436.265L958.657 441.475ZM995.395 449.39C1012.05 449.39 1025.81 446.191 1036.46 439.534L1033.28 434.446C1023.88 440.322 1011.33 443.39 995.395 443.39V449.39ZM1036.49 439.521C1047.6 432.447 1053.38 422.607 1053.38 410.2H1047.38C1047.38 420.353 1042.83 428.373 1033.26 434.459L1036.49 439.521ZM1053.38 410.2C1053.38 402.058 1050.99 395.172 1046 389.823L1041.61 393.917C1045.39 397.968 1047.38 403.302 1047.38 410.2H1053.38ZM1046.13 389.978C1041.53 384.313 1033.68 379.851 1023.13 376.334L1021.24 382.026C1031.37 385.403 1037.93 389.401 1041.48 393.762L1046.13 389.978ZM1023.24 376.371C1013.01 372.534 997.797 368.424 977.706 364.029L976.424 369.891C996.439 374.269 1011.31 378.306 1021.13 381.989L1023.24 376.371ZM977.705 364.029C950.643 358.119 931.873 349.658 920.877 338.96L916.693 343.26C928.884 355.122 948.966 363.894 976.425 369.891L977.705 364.029ZM920.906 338.989C910.258 328.341 904.865 314.568 904.865 297.4H898.865C898.865 315.952 904.751 331.319 916.664 343.231L920.906 338.989ZM904.865 297.4C904.865 286.11 908.123 275.391 914.724 265.19L909.686 261.93C902.5 273.036 898.865 284.876 898.865 297.4H904.865ZM914.712 265.208C921.583 254.752 931.482 246.314 944.541 239.936L941.908 234.544C928.022 241.326 917.24 250.435 909.698 261.912L914.712 265.208ZM944.567 239.923C957.849 233.282 973.818 229.9 992.575 229.9V223.9C973.105 223.9 956.174 227.411 941.883 234.557L944.567 239.923ZM992.575 229.9C1012.31 229.9 1028.93 233.139 1042.54 239.489L1045.07 234.051C1030.48 227.241 1012.94 223.9 992.575 223.9V229.9ZM1042.54 239.489C1056.35 245.934 1066.39 253.5 1072.9 262.083L1077.69 258.457C1070.41 248.866 1059.46 240.766 1045.07 234.051L1042.54 239.489ZM1072.98 262.174C1080.09 270.832 1083.1 277.5 1083.1 282.36H1089.1C1089.1 275.314 1084.91 267.255 1077.61 258.366L1072.98 262.174ZM1083.1 282.36C1083.1 284.28 1082.41 285.806 1080.86 287.132L1084.77 291.688C1087.61 289.254 1089.1 286.08 1089.1 282.36H1083.1ZM1080.69 287.289C1079.41 288.569 1077.84 289.23 1075.76 289.23V295.23C1079.33 295.23 1082.46 294.011 1084.94 291.531L1080.69 287.289ZM1075.76 289.23H1056.02V295.23H1075.76V289.23ZM1056.02 289.23C1053.24 289.23 1050.95 288.133 1048.97 285.656L1044.28 289.404C1047.31 293.194 1051.29 295.23 1056.02 295.23V289.23ZM1048.92 285.598C1043.85 279.578 1039.34 274.887 1035.39 271.595L1031.54 276.205C1035.11 279.179 1039.37 283.575 1044.33 289.462L1048.92 285.598ZM1035.59 271.779C1031.71 267.906 1026.1 264.738 1018.98 262.151L1016.93 267.789C1023.6 270.215 1028.32 273.001 1031.34 276.021L1035.59 271.779ZM1019.02 262.167C1011.98 259.484 1003.12 258.21 992.575 258.21V264.21C1002.71 264.21 1010.77 265.442 1016.89 267.773L1019.02 262.167ZM992.575 258.21C977.141 258.21 964.78 261.582 955.91 268.746L959.68 273.414C967.103 267.418 977.929 264.21 992.575 264.21V258.21ZM955.966 268.702C947.076 275.541 942.575 284.725 942.575 295.99H948.575C948.575 286.575 952.221 279.153 959.624 273.458L955.966 268.702ZM942.575 295.99C942.575 303.122 944.454 309.404 948.326 314.684L953.164 311.136C950.143 307.016 948.575 302.018 948.575 295.99H942.575ZM948.386 314.763C952.345 319.803 959.554 324.116 969.402 327.928L971.568 322.332C961.989 318.624 956.038 314.791 953.104 311.057L948.386 314.763ZM969.432 327.939C979.661 331.775 994.24 335.728 1013.09 339.812L1014.36 333.948C995.61 329.885 981.362 326.005 971.538 322.321L969.432 327.939ZM1013.11 339.816C1042.7 346.045 1063.01 354.982 1074.61 366.289L1078.8 361.991C1065.96 349.484 1044.29 340.249 1014.34 333.944L1013.11 339.816ZM1074.67 366.342C1086.54 377.328 1092.5 391.392 1092.5 408.79H1098.5C1098.5 389.841 1091.93 374.139 1078.74 361.938L1074.67 366.342ZM1092.5 408.79C1092.5 421.638 1088.78 433.248 1081.31 443.706L1086.2 447.194C1094.39 435.718 1098.5 422.889 1098.5 408.79H1092.5ZM1081.31 443.706C1073.88 454.116 1062.79 462.421 1047.84 468.522L1050.11 474.078C1065.87 467.646 1077.96 458.718 1086.2 447.194L1081.31 443.706ZM1047.82 468.531C1033.24 474.608 1015.63 477.7 994.925 477.7V483.7C1016.21 483.7 1034.63 480.525 1050.13 474.069L1047.82 468.531ZM1170.61 269.2H1173.61V266.2H1170.61V269.2ZM1125.96 266.38L1123.68 268.332L1123.83 268.508L1124 268.658L1125.96 266.38ZM1125.96 234.89L1128.08 237.011L1128.08 237.011L1125.96 234.89ZM1170.61 231.6V234.6H1173.61V231.6H1170.61ZM1173.43 145.59L1175.55 147.711L1175.55 147.711L1173.43 145.59ZM1211.03 145.59L1208.75 147.542L1208.9 147.718L1209.07 147.868L1211.03 145.59ZM1214.32 231.6H1211.32V234.6H1214.32V231.6ZM1280.12 234.89L1277.84 236.842L1277.99 237.018L1278.16 237.168L1280.12 234.89ZM1280.12 266.38L1282.24 268.501L1282.24 268.501L1280.12 266.38ZM1214.32 269.2V266.2H1211.32V269.2H1214.32ZM1222.31 425.71L1219.79 427.352L1219.81 427.374L1219.83 427.397L1222.31 425.71ZM1284.82 440.75L1282.54 442.702L1282.69 442.878L1282.86 443.028L1284.82 440.75ZM1284.82 473.18L1286.94 475.301L1286.94 475.301L1284.82 473.18ZM1244.87 473C1220.66 473 1203.04 466.275 1191.4 453.316C1179.71 440.295 1173.61 420.466 1173.61 393.28H1167.61C1167.61 421.241 1173.87 442.771 1186.94 457.324C1200.06 471.938 1219.56 479 1244.87 479V473ZM1173.61 393.28V269.2H1167.61V393.28H1173.61ZM1170.61 266.2H1133.95V272.2H1170.61V266.2ZM1133.95 266.2C1131.46 266.2 1129.51 265.475 1127.91 264.102L1124 268.658C1126.79 271.045 1130.16 272.2 1133.95 272.2V266.2ZM1128.23 264.428C1126.86 262.826 1126.14 260.873 1126.14 258.39H1120.14C1120.14 262.174 1121.29 265.548 1123.68 268.332L1128.23 264.428ZM1126.14 258.39V242.41H1120.14V258.39H1126.14ZM1126.14 242.41C1126.14 239.919 1126.86 238.229 1128.08 237.011L1123.83 232.769C1121.29 235.311 1120.14 238.634 1120.14 242.41H1126.14ZM1128.08 237.011C1129.7 235.387 1131.6 234.6 1133.95 234.6V228.6C1130.03 228.6 1126.6 230.006 1123.83 232.769L1128.08 237.011ZM1133.95 234.6H1170.61V228.6H1133.95V234.6ZM1173.61 231.6V153.11H1167.61V231.6H1173.61ZM1173.61 153.11C1173.61 150.619 1174.33 148.929 1175.55 147.711L1171.3 143.469C1168.76 146.011 1167.61 149.334 1167.61 153.11H1173.61ZM1175.55 147.711C1177.17 146.087 1179.07 145.3 1181.42 145.3V139.3C1177.5 139.3 1174.07 140.706 1171.3 143.469L1175.55 147.711ZM1181.42 145.3H1203.51V139.3H1181.42V145.3ZM1203.51 145.3C1205.85 145.3 1207.49 146.075 1208.75 147.542L1213.3 143.638C1210.8 140.718 1207.43 139.3 1203.51 139.3V145.3ZM1209.07 147.868C1210.54 149.125 1211.32 150.769 1211.32 153.11H1217.32C1217.32 149.185 1215.9 145.815 1212.98 143.312L1209.07 147.868ZM1211.32 153.11V231.6H1217.32V153.11H1211.32ZM1214.32 234.6H1272.6V228.6H1214.32V234.6ZM1272.6 234.6C1274.94 234.6 1276.58 235.375 1277.84 236.842L1282.39 232.938C1279.89 230.018 1276.52 228.6 1272.6 228.6V234.6ZM1278.16 237.168C1279.63 238.425 1280.41 240.069 1280.41 242.41H1286.41C1286.41 238.485 1284.99 235.115 1282.07 232.612L1278.16 237.168ZM1280.41 242.41V258.39H1286.41V242.41H1280.41ZM1280.41 258.39C1280.41 260.737 1279.62 262.634 1277.99 264.259L1282.24 268.501C1285 265.739 1286.41 262.31 1286.41 258.39H1280.41ZM1277.99 264.259C1276.78 265.476 1275.09 266.2 1272.6 266.2V272.2C1276.37 272.2 1279.69 271.044 1282.24 268.501L1277.99 264.259ZM1272.6 266.2H1214.32V272.2H1272.6V266.2ZM1211.32 269.2V389.99H1217.32V269.2H1211.32ZM1211.32 389.99C1211.32 405.916 1214.01 418.503 1219.79 427.352L1224.82 424.068C1219.95 416.624 1217.32 405.397 1217.32 389.99H1211.32ZM1219.83 427.397C1225.87 436.286 1235.73 440.46 1248.63 440.46V434.46C1237.08 434.46 1229.4 430.801 1224.79 424.023L1219.83 427.397ZM1248.63 440.46H1277.3V434.46H1248.63V440.46ZM1277.3 440.46C1279.64 440.46 1281.28 441.235 1282.54 442.702L1287.09 438.798C1284.59 435.878 1281.22 434.46 1277.3 434.46V440.46ZM1282.86 443.028C1284.33 444.285 1285.11 445.929 1285.11 448.27H1291.11C1291.11 444.345 1289.69 440.975 1286.77 438.472L1282.86 443.028ZM1285.11 448.27V465.19H1291.11V448.27H1285.11ZM1285.11 465.19C1285.11 467.537 1284.32 469.434 1282.69 471.059L1286.94 475.301C1289.7 472.539 1291.11 469.11 1291.11 465.19H1285.11ZM1282.69 471.059C1281.48 472.276 1279.79 473 1277.3 473V479C1281.07 479 1284.39 477.844 1286.94 475.301L1282.69 471.059ZM1277.3 473H1244.87V479H1277.3V473ZM1328.93 351.92L1326.65 353.872L1326.8 354.048L1326.98 354.198L1328.93 351.92ZM1328.93 318.55L1331.05 320.671L1331.05 320.671L1328.93 318.55ZM1485.44 318.55L1483.16 320.502L1483.31 320.678L1483.49 320.828L1485.44 318.55ZM1485.44 351.92L1487.56 354.041L1487.56 354.041L1485.44 351.92ZM1336.92 351.74C1334.44 351.74 1332.48 351.015 1330.88 349.642L1326.98 354.198C1329.76 356.585 1333.14 357.74 1336.92 357.74V351.74ZM1331.21 349.968C1329.83 348.366 1329.11 346.413 1329.11 343.93H1323.11C1323.11 347.714 1324.27 351.088 1326.65 353.872L1331.21 349.968ZM1329.11 343.93V326.07H1323.11V343.93H1329.11ZM1329.11 326.07C1329.11 323.579 1329.83 321.889 1331.05 320.671L1326.81 316.429C1324.27 318.971 1323.11 322.294 1323.11 326.07H1329.11ZM1331.05 320.671C1332.68 319.047 1334.57 318.26 1336.92 318.26V312.26C1333 312.26 1329.57 313.666 1326.81 316.429L1331.05 320.671ZM1336.92 318.26H1477.92V312.26H1336.92V318.26ZM1477.92 318.26C1480.26 318.26 1481.9 319.035 1483.16 320.502L1487.72 316.598C1485.22 313.678 1481.84 312.26 1477.92 312.26V318.26ZM1483.49 320.828C1484.95 322.085 1485.73 323.729 1485.73 326.07H1491.73C1491.73 322.145 1490.31 318.775 1487.39 316.272L1483.49 320.828ZM1485.73 326.07V343.93H1491.73V326.07H1485.73ZM1485.73 343.93C1485.73 346.277 1484.94 348.174 1483.32 349.799L1487.56 354.041C1490.32 351.279 1491.73 347.85 1491.73 343.93H1485.73ZM1483.32 349.799C1482.1 351.016 1480.41 351.74 1477.92 351.74V357.74C1481.7 357.74 1485.02 356.584 1487.56 354.041L1483.32 349.799ZM1477.92 351.74H1336.92V357.74H1477.92V351.74ZM1575.86 452.5L1573.72 454.604L1573.73 454.621L1573.75 454.639L1575.86 452.5ZM1545.78 372.6L1542.78 372.675L1542.78 372.692L1542.78 372.71L1545.78 372.6ZM1545.31 353.8L1542.31 353.725L1542.31 353.8L1542.31 353.875L1545.31 353.8ZM1545.78 335L1542.78 334.89L1542.78 334.907L1542.78 334.925L1545.78 335ZM1575.86 255.57L1577.98 257.691L1577.98 257.691L1575.86 255.57ZM1712.16 239.12L1710.77 241.782L1710.77 241.782L1712.16 239.12ZM1746.94 269.2L1744.4 270.802L1744.41 270.826L1744.43 270.849L1746.94 269.2ZM1759.63 304.92L1756.63 305.078L1756.63 305.148L1756.64 305.218L1759.63 304.92ZM1756.81 312.44L1758.76 314.718L1758.76 314.718L1756.81 312.44ZM1719.21 313.38L1721.08 311.037L1721.08 311.037L1719.21 313.38ZM1714.51 305.86L1711.68 306.862L1711.71 306.938L1711.74 307.014L1714.51 305.86ZM1691.95 273.9L1690.26 276.384L1690.29 276.403L1690.32 276.421L1691.95 273.9ZM1608.76 282.36L1606.58 280.295L1606.58 280.297L1608.76 282.36ZM1590.43 337.35L1587.43 337.236L1587.43 337.251L1587.43 337.267L1590.43 337.35ZM1589.96 354.27L1586.96 354.187L1586.95 354.272L1586.96 354.358L1589.96 354.27ZM1590.43 370.25L1587.43 370.338L1587.43 370.35L1587.43 370.362L1590.43 370.25ZM1608.76 425.71L1606.58 427.773L1606.58 427.773L1608.76 425.71ZM1691.95 434.17L1693.57 436.691L1693.6 436.673L1693.63 436.654L1691.95 434.17ZM1714.51 401.74L1711.74 400.586L1711.71 400.662L1711.68 400.738L1714.51 401.74ZM1719.21 394.22L1721.08 396.563L1721.21 396.459L1721.33 396.341L1719.21 394.22ZM1756.81 395.16L1754.68 397.281L1754.77 397.363L1754.85 397.438L1756.81 395.16ZM1759.63 402.68L1756.64 402.381L1756.63 402.45L1756.63 402.518L1759.63 402.68ZM1746.94 438.4L1744.41 436.781L1744.4 436.789L1744.4 436.798L1746.94 438.4ZM1712.16 468.48L1710.77 465.818L1710.76 465.824L1710.75 465.83L1712.16 468.48ZM1654.82 477.7C1621.87 477.7 1596.38 468.479 1577.96 450.361L1573.75 454.639C1593.56 474.121 1620.71 483.7 1654.82 483.7V477.7ZM1577.99 450.396C1559.85 431.952 1550.01 406.108 1548.77 372.49L1542.78 372.71C1544.05 407.399 1554.26 434.822 1573.72 454.604L1577.99 450.396ZM1548.78 372.525L1548.31 353.725L1542.31 353.875L1542.78 372.675L1548.78 372.525ZM1548.31 353.875L1548.78 335.075L1542.78 334.925L1542.31 353.725L1548.31 353.875ZM1548.77 335.11C1550.01 301.49 1559.85 275.816 1577.98 257.691L1573.73 253.449C1554.26 272.924 1544.05 300.203 1542.78 334.89L1548.77 335.11ZM1577.98 257.691C1596.4 239.269 1621.88 229.9 1654.82 229.9V223.9C1620.7 223.9 1593.54 233.644 1573.73 253.449L1577.98 257.691ZM1654.82 229.9C1677.02 229.9 1695.63 233.91 1710.77 241.782L1713.54 236.458C1697.34 228.036 1677.73 223.9 1654.82 223.9V229.9ZM1710.77 241.782C1726.09 249.745 1737.23 259.445 1744.4 270.802L1749.47 267.598C1741.61 255.142 1729.56 244.789 1713.54 236.458L1710.77 241.782ZM1744.43 270.849C1752.03 282.398 1756.04 293.798 1756.63 305.078L1762.62 304.762C1761.96 292.229 1757.51 279.815 1749.44 267.551L1744.43 270.849ZM1756.64 305.218C1756.87 307.479 1756.23 308.985 1754.85 310.162L1758.76 314.718C1761.77 312.135 1763.01 308.628 1762.61 304.621L1756.64 305.218ZM1754.85 310.162C1753.25 311.535 1751.3 312.26 1748.82 312.26V318.26C1752.6 318.26 1755.97 317.105 1758.76 314.718L1754.85 310.162ZM1748.82 312.26H1726.26V318.26H1748.82V312.26ZM1726.26 312.26C1723.44 312.26 1721.89 311.684 1721.08 311.037L1717.33 315.723C1719.66 317.582 1722.8 318.26 1726.26 318.26V312.26ZM1721.08 311.037C1720.14 310.285 1718.81 308.388 1717.28 304.706L1711.74 307.014C1713.34 310.852 1715.14 313.969 1717.33 315.723L1721.08 311.037ZM1717.33 304.858C1711.87 289.427 1704.02 278.12 1693.57 271.379L1690.32 276.421C1699.3 282.213 1706.49 292.213 1711.68 306.862L1717.33 304.858ZM1693.63 271.416C1683.31 264.423 1670.46 261.03 1655.29 261.03V267.03C1669.57 267.03 1681.16 270.217 1690.26 276.384L1693.63 271.416ZM1655.29 261.03C1635.17 261.03 1618.83 267.385 1606.58 280.295L1610.93 284.425C1621.87 272.895 1636.54 267.03 1655.29 267.03V261.03ZM1606.58 280.297C1594.6 292.945 1588.38 312.114 1587.43 337.236L1593.42 337.464C1594.35 313.079 1600.36 295.588 1610.93 284.423L1606.58 280.297ZM1587.43 337.267L1586.96 354.187L1592.95 354.353L1593.42 337.433L1587.43 337.267ZM1586.96 354.358L1587.43 370.338L1593.42 370.162L1592.95 354.182L1586.96 354.358ZM1587.43 370.362C1588.38 395.786 1594.59 415.119 1606.58 427.773L1610.93 423.647C1600.36 412.488 1594.35 394.847 1593.42 370.138L1587.43 370.362ZM1606.58 427.773C1618.54 440.398 1634.9 446.57 1655.29 446.57V440.57C1636.19 440.57 1621.53 434.836 1610.93 423.647L1606.58 427.773ZM1655.29 446.57C1670.43 446.57 1683.26 443.346 1693.57 436.691L1690.32 431.649C1681.21 437.528 1669.59 440.57 1655.29 440.57V446.57ZM1693.63 436.654C1704.03 429.605 1711.87 418.171 1717.33 402.742L1711.68 400.738C1706.49 415.389 1699.29 425.575 1690.26 431.686L1693.63 436.654ZM1717.28 402.894C1718.81 399.212 1720.14 397.315 1721.08 396.563L1717.33 391.877C1715.14 393.631 1713.34 396.748 1711.74 400.586L1717.28 402.894ZM1721.33 396.341C1722.13 395.536 1723.59 394.87 1726.26 394.87V388.87C1722.66 388.87 1719.41 389.771 1717.08 392.099L1721.33 396.341ZM1726.26 394.87H1748.82V388.87H1726.26V394.87ZM1748.82 394.87C1751.16 394.87 1753.06 395.657 1754.68 397.281L1758.93 393.039C1756.16 390.276 1752.74 388.87 1748.82 388.87V394.87ZM1754.85 397.438C1756.23 398.615 1756.87 400.121 1756.64 402.381L1762.61 402.979C1763.01 398.972 1761.77 395.465 1758.76 392.882L1754.85 397.438ZM1756.63 402.518C1756.04 413.479 1752.03 424.89 1744.41 436.781L1749.46 440.019C1757.51 427.47 1761.96 415.068 1762.62 402.842L1756.63 402.518ZM1744.4 436.798C1737.23 448.155 1726.09 457.855 1710.77 465.818L1713.54 471.142C1729.56 462.811 1741.61 452.458 1749.47 440.002L1744.4 436.798ZM1710.75 465.83C1695.94 473.686 1677.35 477.7 1654.82 477.7V483.7C1678.03 483.7 1697.66 479.568 1713.56 471.13L1710.75 465.83ZM1818.26 473.18L1815.98 475.132L1816.13 475.308L1816.31 475.458L1818.26 473.18ZM1818.26 234.89L1820.38 237.011L1820.38 237.011L1818.26 234.89ZM1854.92 234.89L1852.64 236.842L1852.79 237.018L1852.97 237.168L1854.92 234.89ZM1858.21 258.86H1855.21V267.722L1860.6 260.682L1858.21 258.86ZM2000.15 270.14L1997.47 271.482L1999.98 276.495L2002.76 271.628L2000.15 270.14ZM2032.11 238.65L2033.59 241.258L2033.59 241.258L2032.11 238.65ZM2141.62 253.22L2139.42 255.261L2139.42 255.261L2141.62 253.22ZM2162.77 473.18L2160.65 471.059L2160.65 471.059L2162.77 473.18ZM2125.17 473.18L2122.89 475.132L2123.04 475.308L2123.22 475.458L2125.17 473.18ZM2106.84 280.95L2104.66 283.006L2104.67 283.023L2104.69 283.039L2106.84 280.95ZM2028.82 281.42L2030.94 283.541L2030.96 283.526L2030.97 283.51L2028.82 281.42ZM2009.55 473.18L2007.43 471.059L2007.43 471.059L2009.55 473.18ZM1971.95 473.18L1969.67 475.132L1969.82 475.308L1970 475.458L1971.95 473.18ZM1953.15 280.95L1951 283.039L1951.01 283.055L1951.03 283.071L1953.15 280.95ZM1875.6 281.42L1877.72 283.541L1877.74 283.526L1877.75 283.51L1875.6 281.42ZM1856.33 473.18L1858.45 475.301L1858.45 475.301L1856.33 473.18ZM1826.25 473C1823.77 473 1821.82 472.275 1820.21 470.902L1816.31 475.458C1819.09 477.845 1822.47 479 1826.25 479V473ZM1820.54 471.228C1819.17 469.626 1818.44 467.673 1818.44 465.19H1812.44C1812.44 468.974 1813.6 472.348 1815.98 475.132L1820.54 471.228ZM1818.44 465.19V242.41H1812.44V465.19H1818.44ZM1818.44 242.41C1818.44 239.919 1819.17 238.229 1820.38 237.011L1816.14 232.769C1813.6 235.311 1812.44 238.634 1812.44 242.41H1818.44ZM1820.38 237.011C1822.01 235.387 1823.91 234.6 1826.25 234.6V228.6C1822.33 228.6 1818.9 230.006 1816.14 232.769L1820.38 237.011ZM1826.25 234.6H1847.4V228.6H1826.25V234.6ZM1847.4 234.6C1849.74 234.6 1851.39 235.375 1852.64 236.842L1857.2 232.938C1854.7 230.018 1851.33 228.6 1847.4 228.6V234.6ZM1852.97 237.168C1854.44 238.425 1855.21 240.069 1855.21 242.41H1861.21C1861.21 238.485 1859.79 235.115 1856.87 232.612L1852.97 237.168ZM1855.21 242.41V258.86H1861.21V242.41H1855.21ZM1860.6 260.682C1876.27 240.189 1898.06 229.9 1926.36 229.9V223.9C1896.38 223.9 1872.74 234.918 1855.83 257.038L1860.6 260.682ZM1926.36 229.9C1943.34 229.9 1957.63 233.415 1969.38 240.298C1981.11 247.174 1990.49 257.518 1997.47 271.482L2002.84 268.798C1995.4 253.935 1985.27 242.659 1972.41 235.122C1959.56 227.592 1944.17 223.9 1926.36 223.9V229.9ZM2002.76 271.628C2010 258.958 2020.25 248.839 2033.59 241.258L2030.63 236.042C2016.4 244.128 2005.35 255.002 1997.55 268.652L2002.76 271.628ZM2033.59 241.258C2046.89 233.704 2061.88 229.9 2078.64 229.9V223.9C2060.94 223.9 2044.91 227.93 2030.63 236.042L2033.59 241.258ZM2078.64 229.9C2103.57 229.9 2123.74 238.374 2139.42 255.261L2143.82 251.179C2126.91 232.972 2105.1 223.9 2078.64 223.9V229.9ZM2139.42 255.261C2155.03 272.069 2163.06 296.609 2163.06 329.36H2169.06C2169.06 295.685 2160.8 269.464 2143.82 251.179L2139.42 255.261ZM2163.06 329.36V465.19H2169.06V329.36H2163.06ZM2163.06 465.19C2163.06 467.537 2162.28 469.434 2160.65 471.059L2164.89 475.301C2167.66 472.539 2169.06 469.11 2169.06 465.19H2163.06ZM2160.65 471.059C2159.43 472.276 2157.74 473 2155.25 473V479C2159.03 479 2162.35 477.844 2164.89 475.301L2160.65 471.059ZM2155.25 473H2133.16V479H2155.25V473ZM2133.16 473C2130.68 473 2128.73 472.275 2127.12 470.902L2123.22 475.458C2126 477.845 2129.38 479 2133.16 479V473ZM2127.45 471.228C2126.08 469.626 2125.35 467.673 2125.35 465.19H2119.35C2119.35 468.974 2120.51 472.348 2122.89 475.132L2127.45 471.228ZM2125.35 465.19V333.59H2119.35V465.19H2125.35ZM2125.35 333.59C2125.35 308.847 2120.14 290.342 2108.99 278.861L2104.69 283.039C2114.23 292.865 2119.35 309.453 2119.35 333.59H2125.35ZM2109.03 278.894C2098.35 267.554 2084.2 261.97 2066.89 261.97V267.97C2082.79 267.97 2095.28 273.039 2104.66 283.006L2109.03 278.894ZM2066.89 261.97C2051.32 261.97 2037.86 267.806 2026.67 279.33L2030.97 283.51C2041.09 273.1 2053.01 267.97 2066.89 267.97V261.97ZM2026.7 279.299C2015.23 290.773 2009.84 309.128 2009.84 333.59H2015.84C2015.84 309.799 2021.11 293.374 2030.94 283.541L2026.7 279.299ZM2009.84 333.59V465.19H2015.84V333.59H2009.84ZM2009.84 465.19C2009.84 467.537 2009.06 469.434 2007.43 471.059L2011.67 475.301C2014.44 472.539 2015.84 469.11 2015.84 465.19H2009.84ZM2007.43 471.059C2006.21 472.276 2004.52 473 2002.03 473V479C2005.81 479 2009.13 477.844 2011.67 475.301L2007.43 471.059ZM2002.03 473H1979.94V479H2002.03V473ZM1979.94 473C1977.46 473 1975.51 472.275 1973.9 470.902L1970 475.458C1972.78 477.845 1976.16 479 1979.94 479V473ZM1974.23 471.228C1972.86 469.626 1972.13 467.673 1972.13 465.19H1966.13C1966.13 468.974 1967.29 472.348 1969.67 475.132L1974.23 471.228ZM1972.13 465.19V333.59H1966.13V465.19H1972.13ZM1972.13 333.59C1972.13 308.828 1966.75 290.309 1955.27 278.829L1951.03 283.071C1960.86 292.898 1966.13 309.472 1966.13 333.59H1972.13ZM1955.3 278.861C1944.35 267.578 1930.39 261.97 1913.67 261.97V267.97C1928.91 267.97 1941.27 273.016 1951 283.039L1955.3 278.861ZM1913.67 261.97C1898.1 261.97 1884.64 267.806 1873.45 279.33L1877.75 283.51C1887.87 273.1 1899.79 267.97 1913.67 267.97V261.97ZM1873.48 279.299C1862.01 290.767 1856.62 308.958 1856.62 333.12H1862.62C1862.62 309.655 1867.88 293.38 1877.72 283.541L1873.48 279.299ZM1856.62 333.12V465.19H1862.62V333.12H1856.62ZM1856.62 465.19C1856.62 467.537 1855.84 469.434 1854.21 471.059L1858.45 475.301C1861.22 472.539 1862.62 469.11 1862.62 465.19H1856.62ZM1854.21 471.059C1852.99 472.276 1851.3 473 1848.81 473V479C1852.59 479 1855.91 477.844 1858.45 475.301L1854.21 471.059ZM1848.81 473H1826.25V479H1848.81V473ZM2262.26 470.36L2260.94 473.055L2260.97 473.071L2261.01 473.087L2262.26 470.36ZM2228.89 445.92L2226.54 447.784L2226.56 447.809L2226.58 447.833L2228.89 445.92ZM2221.37 416.31L2223.11 418.751L2223.14 418.731L2223.17 418.71L2221.37 416.31ZM2258.5 418.19L2256.16 420.064L2256.19 420.104L2256.22 420.142L2258.5 418.19ZM2357.67 436.99L2359.26 439.534L2359.27 439.528L2359.28 439.521L2357.67 436.99ZM2366.6 391.87L2364.27 393.762L2364.33 393.842L2364.4 393.917L2366.6 391.87ZM2344.98 379.18L2343.92 381.989L2343.98 382.008L2344.03 382.026L2344.98 379.18ZM2299.86 366.96L2300.5 364.029L2300.5 364.029L2299.86 366.96ZM2241.58 341.11L2239.46 343.231L2239.47 343.246L2239.49 343.26L2241.58 341.11ZM2235 263.56L2232.49 261.912L2232.48 261.921L2232.48 261.93L2235 263.56ZM2266.02 237.24L2267.33 239.936L2267.35 239.93L2267.36 239.923L2266.02 237.24ZM2366.6 236.77L2365.33 239.489L2365.33 239.489L2366.6 236.77ZM2398.09 260.27L2395.7 262.083L2395.73 262.129L2395.77 262.174L2398.09 260.27ZM2405.61 289.41L2403.66 287.132L2403.57 287.207L2403.49 287.289L2405.61 289.41ZM2369.42 287.53L2371.76 285.656L2371.74 285.626L2371.71 285.598L2369.42 287.53ZM2356.26 273.9L2354.14 276.021L2354.23 276.118L2354.34 276.205L2356.26 273.9ZM2340.75 264.97L2339.68 267.773L2339.7 267.782L2339.72 267.789L2340.75 264.97ZM2280.59 271.08L2282.42 273.458L2282.45 273.436L2282.47 273.414L2280.59 271.08ZM2273.54 312.91L2271.12 314.684L2271.15 314.724L2271.18 314.763L2273.54 312.91ZM2293.28 325.13L2292.19 327.928L2292.21 327.933L2292.22 327.939L2293.28 325.13ZM2336.52 336.88L2335.88 339.812L2335.89 339.814L2335.9 339.816L2336.52 336.88ZM2399.5 364.14L2397.4 366.289L2397.43 366.316L2397.46 366.342L2399.5 364.14ZM2406.55 445.45L2404.11 443.706L2404.11 443.706L2406.55 445.45ZM2371.77 471.3L2370.63 468.522L2370.62 468.527L2370.61 468.531L2371.77 471.3ZM2317.72 477.7C2296.08 477.7 2278.05 474.298 2263.51 467.633L2261.01 473.087C2276.55 480.209 2295.49 483.7 2317.72 483.7V477.7ZM2263.58 467.665C2249.09 460.578 2238.36 452.664 2231.2 444.007L2226.58 447.833C2234.45 457.349 2245.97 465.729 2260.94 473.055L2263.58 467.665ZM2231.24 444.056C2224.11 435.071 2221.08 428.24 2221.08 423.36H2215.08C2215.08 430.386 2219.25 438.596 2226.54 447.784L2231.24 444.056ZM2221.08 423.36C2221.08 421.015 2221.84 419.657 2223.11 418.751L2219.62 413.869C2216.51 416.096 2215.08 419.438 2215.08 423.36H2221.08ZM2223.17 418.71C2225.29 417.121 2227.18 416.49 2228.89 416.49V410.49C2225.58 410.49 2222.46 411.739 2219.57 413.91L2223.17 418.71ZM2228.89 416.49H2250.04V410.49H2228.89V416.49ZM2250.04 416.49C2252.01 416.49 2254.04 417.425 2256.16 420.064L2260.84 416.316C2257.94 412.688 2254.33 410.49 2250.04 410.49V416.49ZM2256.22 420.142C2263.93 429.14 2272.34 436.268 2281.45 441.475L2284.43 436.265C2275.99 431.445 2268.1 424.787 2260.78 416.238L2256.22 420.142ZM2281.45 441.475C2290.84 446.839 2303.16 449.39 2318.19 449.39V443.39C2303.76 443.39 2292.59 440.928 2284.43 436.265L2281.45 441.475ZM2318.19 449.39C2334.84 449.39 2348.61 446.191 2359.26 439.534L2356.08 434.446C2346.68 440.322 2334.12 443.39 2318.19 443.39V449.39ZM2359.28 439.521C2370.39 432.447 2376.18 422.607 2376.18 410.2H2370.18C2370.18 420.353 2365.62 428.373 2356.06 434.459L2359.28 439.521ZM2376.18 410.2C2376.18 402.058 2373.78 395.172 2368.79 389.823L2364.4 393.917C2368.19 397.968 2370.18 403.302 2370.18 410.2H2376.18ZM2368.93 389.978C2364.32 384.313 2356.48 379.851 2345.93 376.334L2344.03 382.026C2354.16 385.403 2360.73 389.401 2364.27 393.762L2368.93 389.978ZM2346.03 376.371C2335.8 372.534 2320.59 368.424 2300.5 364.029L2299.22 369.891C2319.23 374.269 2334.1 378.306 2343.92 381.989L2346.03 376.371ZM2300.5 364.029C2273.44 358.119 2254.67 349.658 2243.67 338.96L2239.49 343.26C2251.68 355.122 2271.76 363.894 2299.22 369.891L2300.5 364.029ZM2243.7 338.989C2233.05 328.341 2227.66 314.568 2227.66 297.4H2221.66C2221.66 315.952 2227.54 331.319 2239.46 343.231L2243.7 338.989ZM2227.66 297.4C2227.66 286.11 2230.92 275.391 2237.52 265.19L2232.48 261.93C2225.29 273.036 2221.66 284.876 2221.66 297.4H2227.66ZM2237.51 265.208C2244.38 254.752 2254.27 246.314 2267.33 239.936L2264.7 234.544C2250.81 241.326 2240.03 250.435 2232.49 261.912L2237.51 265.208ZM2267.36 239.923C2280.64 233.282 2296.61 229.9 2315.37 229.9V223.9C2295.9 223.9 2278.97 227.411 2264.68 234.557L2267.36 239.923ZM2315.37 229.9C2335.1 229.9 2351.72 233.139 2365.33 239.489L2367.87 234.051C2353.27 227.241 2335.74 223.9 2315.37 223.9V229.9ZM2365.33 239.489C2379.14 245.934 2389.19 253.5 2395.7 262.083L2400.48 258.457C2393.2 248.866 2382.26 240.766 2367.87 234.051L2365.33 239.489ZM2395.77 262.174C2402.88 270.832 2405.9 277.5 2405.9 282.36H2411.9C2411.9 275.314 2407.71 267.255 2400.41 258.366L2395.77 262.174ZM2405.9 282.36C2405.9 284.28 2405.2 285.806 2403.66 287.132L2407.56 291.688C2410.4 289.254 2411.9 286.08 2411.9 282.36H2405.9ZM2403.49 287.289C2402.21 288.569 2400.64 289.23 2398.56 289.23V295.23C2402.12 295.23 2405.25 294.011 2407.73 291.531L2403.49 287.289ZM2398.56 289.23H2378.82V295.23H2398.56V289.23ZM2378.82 289.23C2376.04 289.23 2373.74 288.133 2371.76 285.656L2367.08 289.404C2370.11 293.194 2374.08 295.23 2378.82 295.23V289.23ZM2371.71 285.598C2366.64 279.578 2362.13 274.887 2358.18 271.595L2354.34 276.205C2357.91 279.179 2362.17 283.575 2367.12 289.462L2371.71 285.598ZM2358.38 271.779C2354.51 267.906 2348.89 264.738 2341.77 262.151L2339.72 267.789C2346.39 270.215 2351.12 273.001 2354.14 276.021L2358.38 271.779ZM2341.82 262.167C2334.77 259.484 2325.92 258.21 2315.37 258.21V264.21C2325.5 264.21 2333.56 265.442 2339.68 267.773L2341.82 262.167ZM2315.37 258.21C2299.93 258.21 2287.57 261.582 2278.7 268.746L2282.47 273.414C2289.9 267.418 2300.72 264.21 2315.37 264.21V258.21ZM2278.76 268.702C2269.87 275.541 2265.37 284.725 2265.37 295.99H2271.37C2271.37 286.575 2275.01 279.153 2282.42 273.458L2278.76 268.702ZM2265.37 295.99C2265.37 303.122 2267.25 309.404 2271.12 314.684L2275.96 311.136C2272.94 307.016 2271.37 302.018 2271.37 295.99H2265.37ZM2271.18 314.763C2275.14 319.803 2282.35 324.116 2292.19 327.928L2294.36 322.332C2284.78 318.624 2278.83 314.791 2275.9 311.057L2271.18 314.763ZM2292.22 327.939C2302.45 331.775 2317.03 335.728 2335.88 339.812L2337.15 333.948C2318.4 329.885 2304.15 326.005 2294.33 322.321L2292.22 327.939ZM2335.9 339.816C2365.49 346.045 2385.8 354.982 2397.4 366.289L2401.59 361.991C2388.76 349.484 2367.08 340.249 2337.14 333.944L2335.9 339.816ZM2397.46 366.342C2409.34 377.328 2415.3 391.392 2415.3 408.79H2421.3C2421.3 389.841 2414.73 374.139 2401.54 361.938L2397.46 366.342ZM2415.3 408.79C2415.3 421.638 2411.58 433.248 2404.11 443.706L2408.99 447.194C2417.19 435.718 2421.3 422.889 2421.3 408.79H2415.3ZM2404.11 443.706C2396.67 454.116 2385.58 462.421 2370.63 468.522L2372.9 474.078C2388.66 467.646 2400.76 458.718 2408.99 447.194L2404.11 443.706ZM2370.61 468.531C2356.03 474.608 2338.42 477.7 2317.72 477.7V483.7C2339 483.7 2357.43 480.525 2372.92 474.069L2370.61 468.531Z" fill="black"/>
</svg>
