<svg width="632" height="632" viewBox="0 0 632 632" fill="none" xmlns="http://www.w3.org/2000/svg">
<circle cx="316" cy="316" r="301.5" fill="white" stroke="black" stroke-width="29"/>
<path d="M401.959 211.161C432.626 186.619 448.78 155.846 438.042 142.427C427.303 129.008 393.737 138.025 363.07 162.566C332.403 187.107 316.248 217.88 326.987 231.299C337.725 244.718 371.291 235.702 401.959 211.161Z" fill="#29C16E"/>
<path d="M299.105 235.26C308.335 226.03 295.274 198.005 269.933 172.664C244.592 147.322 216.567 134.262 207.337 143.492C198.107 152.721 211.168 180.747 236.509 206.088C261.85 231.429 289.876 244.49 299.105 235.26Z" fill="#29C16E"/>
<path d="M423.312 371.617C436.732 360.88 427.714 327.314 403.174 296.646C378.633 265.98 347.859 249.825 334.44 260.563C321.021 271.302 330.038 304.868 354.579 335.534C379.119 366.201 409.893 382.356 423.312 371.617Z" fill="#EF3C56"/>
<path d="M201.088 383.183C201.088 415.128 213.779 445.766 236.367 468.354C258.956 490.943 289.593 503.633 321.539 503.633C388.063 503.633 487.361 394.519 424.113 373.94C354.721 351.366 322.718 265.07 308.336 263.457C242.229 256.038 201.088 316.66 201.088 383.183Z" fill="#EF3C56"/>
<path d="M171.058 125.18C171.092 151.151 178.069 176.641 191.265 199.01C204.462 221.379 223.398 239.813 246.114 252.403C234.209 259.006 223.286 267.241 213.662 276.869C192.072 298.438 177.811 326.25 172.898 356.369C167.985 386.488 172.668 417.39 186.284 444.701C199.901 472.013 221.761 494.351 248.772 508.555C275.783 522.756 306.576 528.107 336.795 523.845C367.014 519.582 395.128 505.927 417.158 484.807C439.187 463.688 454.016 436.177 459.549 406.165C465.082 376.152 461.037 345.161 447.985 317.575C434.935 289.989 413.538 267.206 386.827 252.449C409.573 239.876 428.536 221.442 441.748 199.062C454.96 176.682 461.939 151.173 461.959 125.184C461.959 122.796 461.49 120.431 460.576 118.225C459.664 116.019 458.324 114.014 456.636 112.326C454.946 110.637 452.942 109.298 450.735 108.384C448.531 107.47 446.166 107 443.778 107.001C424.669 106.949 405.738 110.689 388.085 118.003C370.431 125.317 354.402 136.059 340.927 149.61C331.3 159.234 323.065 170.157 316.463 182.062C303.883 159.337 285.451 140.394 263.08 127.196C240.709 113.998 215.213 107.027 189.239 107.006C186.852 107.006 184.489 107.476 182.283 108.389C180.077 109.302 178.073 110.64 176.385 112.328C174.697 114.015 173.358 116.019 172.444 118.224C171.53 120.429 171.059 122.793 171.058 125.18ZM336.542 232.392C340.59 210.767 351.08 190.871 366.637 175.314C382.192 159.757 402.089 149.266 423.713 145.217C419.635 166.828 409.134 186.708 393.584 202.259C378.033 217.811 358.153 228.312 336.542 232.392ZM393.608 302.617C409.169 318.154 419.665 338.039 423.713 359.653C402.113 355.569 382.242 345.072 366.698 329.526C351.153 313.981 340.653 294.113 336.57 272.512C358.185 276.56 378.069 287.055 393.608 302.617ZM239.37 302.581C255.68 286.186 276.811 275.443 299.669 271.928C303.954 303.473 318.463 332.744 340.973 355.255C363.483 377.765 392.751 392.276 424.297 396.562C421.639 413.581 414.989 429.73 404.889 443.684C394.791 457.639 381.532 469.005 366.195 476.849C350.86 484.695 333.884 488.797 316.659 488.82C299.433 488.842 282.447 484.788 267.09 476.983C251.733 469.179 238.443 457.85 228.307 443.922C218.17 429.995 211.476 413.864 208.772 396.852C206.068 379.841 207.431 362.43 212.749 346.045C218.067 329.661 227.19 314.771 239.37 302.589V302.581ZM209.292 145.242C230.894 149.326 250.764 159.825 266.31 175.371C281.855 190.916 292.355 210.786 296.438 232.388C274.837 228.304 254.969 217.804 239.425 202.258C223.881 186.713 213.383 166.844 209.3 145.242H209.292Z" fill="#0E1E28"/>
</svg>
